<svg width="372" height="41" viewBox="0 0 372 41" fill="none" xmlns="http://www.w3.org/2000/svg">
<g clip-path="url(#clip0_391_11703)">
<path d="M312.8 0H278.496V3.24354H311.166V14.081H364.499L372.004 7.42487V0H312.8ZM368.736 5.97339L363.252 10.8375H314.433V3.24354H368.736V5.97339Z" fill="#FFC51E"/>
<path d="M94.7416 0H60.4805V3.24354H94.7416V0Z" fill="#FFC51E"/>
<path d="M94.7416 8.04492H60.4805V11.2885H94.7416V8.04492Z" fill="#FFC51E"/>
<path d="M271.083 0H102.148V3.24354H271.083V0Z" fill="#FFC51E"/>
<path d="M20.7357 14.9341H0.414062V18.1776H22.4902L32.4515 3.24354H53.0688V0H30.6966L20.7357 14.9341Z" fill="#FFC51E"/>
<path d="M10.4587 40.3466C10.4587 40.5907 10.2921 40.7123 9.95845 40.7123H7.24707C6.91382 40.7123 6.74678 40.5903 6.74678 40.3466C6.74678 40.1029 6.91341 39.9809 7.24707 39.9809H8.60705V31.2529H8.449L5.66738 37.6553H4.82526L1.99136 31.2529H1.85087V39.9809H3.21085C3.53838 39.9809 3.70215 40.1029 3.70215 40.3466C3.70215 40.5903 3.53838 40.7123 3.21085 40.7123H0.491306C0.163769 40.7123 0 40.5903 0 40.3466C0 40.1029 0.163769 39.9809 0.491306 39.9809H1.11412V31.2529H0.649357C0.32182 31.2529 0.158051 31.1309 0.158051 30.8872C0.158051 30.6435 0.32182 30.5215 0.649357 30.5215H2.45694L5.24713 36.8281L7.99363 30.5215H9.80121C10.1345 30.5215 10.3015 30.6435 10.3015 30.8872C10.3015 31.1309 10.1349 31.2529 9.80121 31.2529H9.34503V39.9809H9.95926C10.2925 39.9809 10.4596 40.1029 10.4596 40.3466H10.4587Z" fill="#FFC51E"/>
<path d="M100.807 40.3466C100.807 40.5907 100.643 40.7123 100.317 40.7123H97.5767C97.2442 40.7123 97.0776 40.5903 97.0776 40.3466C97.0776 40.1029 97.2442 39.9809 97.5779 39.9809H98.982L97.9663 37.3066H93.128L92.1294 39.9809H93.5421C93.8696 39.9809 94.0334 40.1029 94.0334 40.3466C94.0334 40.5903 93.87 40.7123 93.5433 40.7123H90.7948C90.468 40.7123 90.3047 40.5903 90.3047 40.3466C90.3047 40.1029 90.468 39.9809 90.796 39.9809H91.3661L94.6178 31.2529H92.4443C92.1172 31.2529 91.9538 31.1309 91.9538 30.8872C91.9538 30.6435 92.1172 30.5215 92.4443 30.5215H96.1518L99.7457 39.9813H100.316C100.643 39.9813 100.807 40.1033 100.807 40.347L100.807 40.3466ZM97.6853 36.5747L95.6519 31.2525H95.3799L93.4077 36.5747H97.6853Z" fill="#FFC51E"/>
<path d="M189.662 37.9729C189.662 38.9322 189.27 39.6912 188.486 40.2495C187.784 40.7494 186.933 41 185.933 41C184.652 41 183.628 40.6026 182.862 39.8067V40.2248C182.862 40.5503 182.739 40.7125 182.493 40.7125C182.248 40.7125 182.125 40.5503 182.125 40.2248V38.204C182.125 37.8732 182.248 37.7074 182.493 37.7074C182.722 37.7074 182.844 37.8553 182.862 38.1517C182.897 38.8312 183.262 39.3685 183.959 39.7634C184.544 40.1003 185.201 40.2685 185.933 40.2685C186.717 40.2685 187.389 40.0828 187.951 39.7111C188.6 39.2813 188.925 38.695 188.925 37.9514C188.925 37.1499 188.518 36.5725 187.705 36.2182C187.419 36.0909 186.833 35.9542 185.95 35.8087C184.898 35.6343 184.12 35.3939 183.616 35.0858C182.874 34.6386 182.502 33.974 182.502 33.091C182.502 32.2258 182.856 31.5288 183.564 31.0005C184.201 30.5245 184.97 30.2861 185.871 30.2861C186.901 30.2861 187.787 30.6085 188.53 31.2531V31.009C188.53 30.6839 188.653 30.5213 188.898 30.5213C189.144 30.5213 189.267 30.6839 189.267 31.009V32.8733C189.267 33.1988 189.144 33.361 188.898 33.361C188.67 33.361 188.548 33.213 188.53 32.9166C188.495 32.3243 188.188 31.8483 187.609 31.4883C187.1 31.1749 186.529 31.018 185.898 31.018C185.201 31.018 184.602 31.1891 184.099 31.5308C183.526 31.9193 183.24 32.4435 183.24 33.1044C183.24 33.6894 183.485 34.1443 183.977 34.4687C184.374 34.7355 185.065 34.9499 186.047 35.1121C187.053 35.2747 187.743 35.4409 188.118 35.6096C189.147 36.069 189.662 36.8571 189.662 37.9737V37.9729Z" fill="#FFC51E"/>
<path d="M279.645 40.3466C279.645 40.5907 279.481 40.7123 279.154 40.7123H273.362C273.034 40.7123 272.871 40.5903 272.871 40.3466C272.871 40.1029 273.034 39.9809 273.362 39.9809H275.89V31.2529H273.362C273.034 31.2529 272.871 31.1309 272.871 30.8872C272.871 30.6435 273.034 30.5215 273.362 30.5215H279.154C279.481 30.5215 279.645 30.6435 279.645 30.8872C279.645 31.1309 279.481 31.2529 279.154 31.2529H276.626V39.9809H279.154C279.481 39.9809 279.645 40.1029 279.645 40.3466Z" fill="#FFC51E"/>
<path d="M371.867 40.347C371.867 40.5911 371.704 40.7127 371.376 40.7127H370.394C369.68 39.4408 369.153 38.5784 368.814 38.1256C368.13 37.208 367.376 36.5549 366.551 36.1657H364.208V39.9809H365.568C365.901 39.9809 366.068 40.1029 366.068 40.3466C366.068 40.5903 365.902 40.7123 365.568 40.7123H362.48C362.152 40.7123 361.988 40.5903 361.988 40.3466C361.988 40.1029 362.152 39.9809 362.48 39.9809H363.471V31.2529H362.48C362.152 31.2529 361.988 31.1309 361.988 30.8872C361.988 30.6435 362.152 30.5215 362.48 30.5215H366.937C367.767 30.5215 368.508 30.7802 369.157 31.2967C369.853 31.8542 370.201 32.5369 370.201 33.3438C370.201 34.5285 369.356 35.4054 367.665 35.9743C368.309 36.4158 368.908 37.0228 369.464 37.7947C369.715 38.1491 370.166 38.8781 370.815 39.9813H371.377C371.705 39.9813 371.868 40.1033 371.868 40.347H371.867ZM369.463 33.3089C369.463 32.7283 369.177 32.232 368.604 31.8193C368.083 31.4418 367.521 31.2533 366.919 31.2533H364.208V35.4342H366.217C366.755 35.4342 367.281 35.3414 367.796 35.1553C368.387 34.9408 368.826 34.6444 369.112 34.267C369.346 33.9536 369.463 33.6341 369.463 33.3089Z" fill="#FFC51E"/>
</g>
<defs>
<clipPath id="clip0_391_11703">
<rect width="372" height="41" fill="white"/>
</clipPath>
</defs>
</svg>
