<svg width="196" height="22" viewBox="0 0 196 22" fill="none" xmlns="http://www.w3.org/2000/svg">
<g clip-path="url(#clip0_391_11688)">
<path d="M164.808 0H146.734V1.74044H163.948V7.55567H192.048L196.002 3.98408V0H164.808ZM194.28 3.20523L191.391 5.81524H165.669V1.74044H194.28V3.20523Z" fill="#0C385F"/>
<path d="M49.9188 0H31.8672V1.74044H49.9188V0Z" fill="#0C385F"/>
<path d="M49.9188 4.31689H31.8672V6.05733H49.9188V4.31689Z" fill="#0C385F"/>
<path d="M142.829 0H53.8203V1.74044H142.829V0Z" fill="#0C385F"/>
<path d="M10.9258 8.01341H0.21875V9.75385H11.8502L17.0987 1.74044H27.9615V0H16.174L10.9258 8.01341Z" fill="#0C385F"/>
<path d="M5.51052 21.649C5.51052 21.7799 5.42272 21.8452 5.24692 21.8452H3.81835C3.64276 21.8452 3.55476 21.7797 3.55476 21.649C3.55476 21.5182 3.64255 21.4527 3.81835 21.4527H4.5349V16.7694H4.45162L2.98604 20.2048H2.54234L1.04921 16.7694H0.975191V21.4527H1.69174C1.86431 21.4527 1.9506 21.5182 1.9506 21.649C1.9506 21.7797 1.86431 21.8452 1.69174 21.8452H0.25886C0.0862867 21.8452 0 21.7797 0 21.649C0 21.5182 0.0862867 21.4527 0.25886 21.4527H0.587008V16.7694H0.342135C0.169561 16.7694 0.0832742 16.7039 0.0832742 16.5732C0.0832742 16.4424 0.169561 16.377 0.342135 16.377H1.29452L2.76462 19.761L4.2117 16.377H5.16408C5.33966 16.377 5.42767 16.4424 5.42767 16.5732C5.42767 16.7039 5.33988 16.7694 5.16408 16.7694H4.92372V21.4527H5.24735C5.42294 21.4527 5.51095 21.5182 5.51095 21.649H5.51052Z" fill="#0C385F"/>
<path d="M53.1114 21.649C53.1114 21.7799 53.0254 21.8452 52.8532 21.8452H51.4096C51.2344 21.8452 51.1467 21.7797 51.1467 21.649C51.1467 21.5182 51.2344 21.4527 51.4102 21.4527H52.15L51.6149 20.0177H49.0657L48.5395 21.4527H49.2838C49.4564 21.4527 49.5427 21.5182 49.5427 21.649C49.5427 21.7797 49.4566 21.8452 49.2845 21.8452H47.8363C47.6642 21.8452 47.5781 21.7797 47.5781 21.649C47.5781 21.5182 47.6642 21.4527 47.837 21.4527H48.1374L49.8506 16.7694H48.7054C48.5331 16.7694 48.447 16.7039 48.447 16.5732C48.447 16.4424 48.5331 16.377 48.7054 16.377H50.6588L52.5524 21.4529H52.8528C53.0254 21.4529 53.1117 21.5184 53.1117 21.6492L53.1114 21.649ZM51.4668 19.625L50.3955 16.7692H50.2522L49.2131 19.625H51.4668Z" fill="#0C385F"/>
<path d="M99.9321 20.3756C99.9321 20.8903 99.7255 21.2976 99.3126 21.5972C98.9427 21.8654 98.4942 21.9999 97.9673 21.9999C97.2922 21.9999 96.7528 21.7867 96.3491 21.3596V21.5839C96.3491 21.7586 96.2843 21.8456 96.155 21.8456C96.0257 21.8456 95.9609 21.7586 95.9609 21.5839V20.4996C95.9609 20.3221 96.0257 20.2331 96.155 20.2331C96.2753 20.2331 96.3399 20.3125 96.3491 20.4715C96.3676 20.8362 96.56 21.1244 96.9271 21.3363C97.2352 21.5171 97.5819 21.6074 97.9673 21.6074C98.3802 21.6074 98.7346 21.5078 99.0305 21.3083C99.3726 21.0776 99.5437 20.7631 99.5437 20.3641C99.5437 19.934 99.3293 19.6242 98.9011 19.434C98.7501 19.3657 98.4417 19.2924 97.9765 19.2143C97.4218 19.1207 97.0119 18.9917 96.7468 18.8264C96.3554 18.5864 96.1595 18.2299 96.1595 17.756C96.1595 17.2918 96.3459 16.9178 96.719 16.6343C97.0549 16.3789 97.4601 16.251 97.9348 16.251C98.4772 16.251 98.944 16.4239 99.3356 16.7698V16.6389C99.3356 16.4644 99.4004 16.3772 99.5297 16.3772C99.659 16.3772 99.7238 16.4644 99.7238 16.6389V17.6392C99.7238 17.8139 99.659 17.9009 99.5297 17.9009C99.4094 17.9009 99.3448 17.8215 99.3356 17.6625C99.3171 17.3446 99.1553 17.0892 98.8501 16.896C98.582 16.7279 98.2814 16.6437 97.9488 16.6437C97.5819 16.6437 97.266 16.7355 97.0011 16.9189C96.699 17.1273 96.5482 17.4086 96.5482 17.7632C96.5482 18.0771 96.6777 18.3212 96.9366 18.4953C97.1461 18.6384 97.5098 18.7535 98.0275 18.8405C98.5575 18.9278 98.9211 19.017 99.1185 19.1075C99.6609 19.354 99.9321 19.7769 99.9321 20.376V20.3756Z" fill="#0C385F"/>
<path d="M147.338 21.649C147.338 21.7799 147.252 21.8452 147.08 21.8452H144.028C143.856 21.8452 143.77 21.7797 143.77 21.649C143.77 21.5182 143.856 21.4527 144.028 21.4527H145.36V16.7694H144.028C143.856 16.7694 143.77 16.7039 143.77 16.5732C143.77 16.4424 143.856 16.377 144.028 16.377H147.08C147.252 16.377 147.338 16.4424 147.338 16.5732C147.338 16.7039 147.252 16.7694 147.08 16.7694H145.748V21.4527H147.08C147.252 21.4527 147.338 21.5182 147.338 21.649Z" fill="#0C385F"/>
<path d="M195.932 21.6492C195.932 21.7801 195.845 21.8454 195.673 21.8454H195.155C194.779 21.1629 194.502 20.7002 194.323 20.4572C193.962 19.9649 193.565 19.6144 193.13 19.4055H191.896V21.4527H192.613C192.788 21.4527 192.876 21.5182 192.876 21.649C192.876 21.7797 192.788 21.8452 192.613 21.8452H190.985C190.813 21.8452 190.727 21.7797 190.727 21.649C190.727 21.5182 190.813 21.4527 190.985 21.4527H191.508V16.7694H190.985C190.813 16.7694 190.727 16.7039 190.727 16.5732C190.727 16.4424 190.813 16.377 190.985 16.377H193.334C193.771 16.377 194.161 16.5158 194.504 16.7929C194.87 17.0921 195.054 17.4584 195.054 17.8914C195.054 18.527 194.608 18.9976 193.718 19.3028C194.057 19.5398 194.373 19.8654 194.665 20.2797C194.798 20.4698 195.035 20.861 195.377 21.4529H195.673C195.846 21.4529 195.932 21.5184 195.932 21.6492H195.932ZM194.665 17.8726C194.665 17.5611 194.514 17.2948 194.212 17.0733C193.938 16.8708 193.642 16.7696 193.324 16.7696H191.896V19.0131H192.955C193.238 19.0131 193.515 18.9632 193.787 18.8634C194.098 18.7483 194.329 18.5893 194.48 18.3867C194.603 18.2186 194.665 18.0471 194.665 17.8726Z" fill="#0C385F"/>
</g>
<defs>
<clipPath id="clip0_391_11688">
<rect width="196" height="22" fill="white"/>
</clipPath>
</defs>
</svg>
