<svg width="31" height="31" viewBox="0 0 31 31" fill="none" xmlns="http://www.w3.org/2000/svg">
<g id="Feather Icons / copy">
<path id="Vector" d="M25.8333 11.625H14.2083C12.7816 11.625 11.625 12.7816 11.625 14.2083V25.8333C11.625 27.2601 12.7816 28.4167 14.2083 28.4167H25.8333C27.2601 28.4167 28.4167 27.2601 28.4167 25.8333V14.2083C28.4167 12.7816 27.2601 11.625 25.8333 11.625Z" stroke="#0C385F" stroke-linecap="round" stroke-linejoin="round"/>
<path id="Vector_2" d="M6.45825 19.375H5.16659C4.48144 19.375 3.82436 19.1028 3.33989 18.6183C2.85542 18.1339 2.58325 17.4768 2.58325 16.7916V5.16665C2.58325 4.4815 2.85542 3.82442 3.33989 3.33995C3.82436 2.85548 4.48144 2.58331 5.16659 2.58331H16.7916C17.4767 2.58331 18.1338 2.85548 18.6183 3.33995C19.1027 3.82442 19.3749 4.4815 19.3749 5.16665V6.45831" stroke="#0C385F" stroke-linecap="round" stroke-linejoin="round"/>
</g>
</svg>
