<svg width="72" height="72" viewBox="0 0 72 72" fill="none" xmlns="http://www.w3.org/2000/svg">
<g id="Feather Icons / image">
<path id="Vector" d="M57 9H15C11.6863 9 9 11.6863 9 15V57C9 60.3137 11.6863 63 15 63H57C60.3137 63 63 60.3137 63 57V15C63 11.6863 60.3137 9 57 9Z" stroke="#0C385F" stroke-width="2" stroke-linecap="round" stroke-linejoin="round"/>
<path id="Vector_2" d="M25.5 30C27.9853 30 30 27.9853 30 25.5C30 23.0147 27.9853 21 25.5 21C23.0147 21 21 23.0147 21 25.5C21 27.9853 23.0147 30 25.5 30Z" stroke="#0C385F" stroke-width="2" stroke-linecap="round" stroke-linejoin="round"/>
<path id="Vector_3" d="M63 45L48 30L15 63" stroke="#0C385F" stroke-width="2" stroke-linecap="round" stroke-linejoin="round"/>
</g>
</svg>
