<svg width="38" height="38" viewBox="0 0 38 38" fill="none" xmlns="http://www.w3.org/2000/svg">
<g id="Phosphor Icons / InstagramLogo">
<path id="Vector" d="M19 24.9375C22.2792 24.9375 24.9375 22.2792 24.9375 19C24.9375 15.7208 22.2792 13.0625 19 13.0625C15.7208 13.0625 13.0625 15.7208 13.0625 19C13.0625 22.2792 15.7208 24.9375 19 24.9375Z" stroke="white" stroke-width="2" stroke-miterlimit="10"/>
<path id="Vector_2" d="M25.5312 5.34375H12.4688C8.53372 5.34375 5.34375 8.53372 5.34375 12.4688V25.5312C5.34375 29.4663 8.53372 32.6562 12.4688 32.6562H25.5312C29.4663 32.6562 32.6562 29.4663 32.6562 25.5312V12.4688C32.6562 8.53372 29.4663 5.34375 25.5312 5.34375Z" stroke="white" stroke-width="2" stroke-linecap="round" stroke-linejoin="round"/>
<path id="Vector_3" d="M26.7188 13.0625C27.7025 13.0625 28.5 12.265 28.5 11.2812C28.5 10.2975 27.7025 9.5 26.7188 9.5C25.735 9.5 24.9375 10.2975 24.9375 11.2812C24.9375 12.265 25.735 13.0625 26.7188 13.0625Z" fill="white"/>
</g>
</svg>
