<svg width="47" height="47" viewBox="0 0 47 47" fill="none" xmlns="http://www.w3.org/2000/svg">
<g id="Phosphor Icons / Medal">
<path id="Vector" d="M23.5 32.3125C31.6117 32.3125 38.1875 25.7367 38.1875 17.625C38.1875 9.51332 31.6117 2.9375 23.5 2.9375C15.3883 2.9375 8.8125 9.51332 8.8125 17.625C8.8125 25.7367 15.3883 32.3125 23.5 32.3125Z" stroke="#FFC51E" stroke-width="2" stroke-linecap="round" stroke-linejoin="round"/>
<path id="Vector_2" d="M23.5 26.4375C28.367 26.4375 32.3125 22.492 32.3125 17.625C32.3125 12.758 28.367 8.8125 23.5 8.8125C18.633 8.8125 14.6875 12.758 14.6875 17.625C14.6875 22.492 18.633 26.4375 23.5 26.4375Z" stroke="#FFC51E" stroke-width="2" stroke-linecap="round" stroke-linejoin="round"/>
<path id="Vector_3" d="M32.3125 29.375V44.0625L23.5 39.6562L14.6875 44.0625V29.375" stroke="#FFC51E" stroke-width="2" stroke-linecap="round" stroke-linejoin="round"/>
</g>
</svg>
