<svg width="134" height="134" viewBox="0 0 134 134" fill="none" xmlns="http://www.w3.org/2000/svg">
<g id="Feather Icons / image">
<path id="Vector" d="M106.083 16.75H27.9167C21.7495 16.75 16.75 21.7495 16.75 27.9167V106.083C16.75 112.251 21.7495 117.25 27.9167 117.25H106.083C112.251 117.25 117.25 112.251 117.25 106.083V27.9167C117.25 21.7495 112.251 16.75 106.083 16.75Z" stroke="#FFC51E" stroke-width="2" stroke-linecap="round" stroke-linejoin="round"/>
<path id="Vector_2" d="M47.458 55.8335C52.0834 55.8335 55.833 52.0839 55.833 47.4585C55.833 42.8331 52.0834 39.0835 47.458 39.0835C42.8326 39.0835 39.083 42.8331 39.083 47.4585C39.083 52.0839 42.8326 55.8335 47.458 55.8335Z" stroke="#FFC51E" stroke-width="2" stroke-linecap="round" stroke-linejoin="round"/>
<path id="Vector_3" d="M117.25 83.7502L89.3337 55.8335L27.917 117.25" stroke="#FFC51E" stroke-width="2" stroke-linecap="round" stroke-linejoin="round"/>
</g>
</svg>
