<svg xmlns="http://www.w3.org/2000/svg" width="56" height="56" viewBox="0 0 56 56" fill="none">
  <path d="M43.75 49C46.6495 49 49 46.6495 49 43.75C49 40.8505 46.6495 38.5 43.75 38.5C40.8505 38.5 38.5 40.8505 38.5 43.75C38.5 46.6495 40.8505 49 43.75 49Z" stroke="#FFC51E" stroke-width="2" stroke-linecap="round" stroke-linejoin="round"/>
  <path d="M15.75 12.25H36.75C38.6065 12.25 40.387 12.9875 41.6997 14.3003C43.0125 15.613 43.75 17.3935 43.75 19.25C43.75 21.1065 43.0125 22.887 41.6997 24.1997C40.387 25.5125 38.6065 26.25 36.75 26.25H15.75C13.4294 26.25 11.2038 27.1719 9.56282 28.8128C7.92187 30.4538 7 32.6794 7 35C7 37.3206 7.92187 39.5462 9.56282 41.1872C11.2038 42.8281 13.4294 43.75 15.75 43.75H38.5" stroke="#FFC51E" stroke-width="2" stroke-linecap="round" stroke-linejoin="round"/>
</svg>
