<svg width="39" height="39" viewBox="0 0 39 39" fill="none" xmlns="http://www.w3.org/2000/svg">
<g id="Phosphor Icons / UserCircle">
<path id="Vector" d="M19.5 34.125C27.5772 34.125 34.125 27.5772 34.125 19.5C34.125 11.4228 27.5772 4.875 19.5 4.875C11.4228 4.875 4.875 11.4228 4.875 19.5C4.875 27.5772 11.4228 34.125 19.5 34.125Z" stroke="white" stroke-width="2" stroke-linecap="round" stroke-linejoin="round"/>
<path id="Vector_2" d="M19.5 24.375C22.8655 24.375 25.5938 21.6467 25.5938 18.2812C25.5938 14.9158 22.8655 12.1875 19.5 12.1875C16.1345 12.1875 13.4062 14.9158 13.4062 18.2812C13.4062 21.6467 16.1345 24.375 19.5 24.375Z" stroke="white" stroke-width="2" stroke-linecap="round" stroke-linejoin="round"/>
<path id="Vector_3" d="M9.71973 30.3773C10.6367 28.5711 12.0359 27.0542 13.7622 25.9946C15.4886 24.9349 17.4746 24.374 19.5002 24.374C21.5258 24.374 23.5118 24.9349 25.2382 25.9946C26.9645 27.0542 28.3637 28.5711 29.2807 30.3773" stroke="white" stroke-width="2" stroke-linecap="round" stroke-linejoin="round"/>
</g>
</svg>
