<svg width="39" height="39" viewBox="0 0 39 39" fill="none" xmlns="http://www.w3.org/2000/svg">
<g id="Phosphor Icons / UserCircle">
<path id="Vector" d="M19.5 34.125C27.5772 34.125 34.125 27.5772 34.125 19.5C34.125 11.4228 27.5772 4.875 19.5 4.875C11.4228 4.875 4.875 11.4228 4.875 19.5C4.875 27.5772 11.4228 34.125 19.5 34.125Z" stroke="black" stroke-width="2" stroke-linecap="round" stroke-linejoin="round"/>
<path id="Vector_2" d="M19.5 24.375C22.8655 24.375 25.5938 21.6467 25.5938 18.2812C25.5938 14.9158 22.8655 12.1875 19.5 12.1875C16.1345 12.1875 13.4062 14.9158 13.4062 18.2812C13.4062 21.6467 16.1345 24.375 19.5 24.375Z" stroke="black" stroke-width="2" stroke-linecap="round" stroke-linejoin="round"/>
<path id="Vector_3" d="M9.71875 30.3774C10.6357 28.5712 12.0349 27.0542 13.7613 25.9946C15.4876 24.935 17.4736 24.3741 19.4992 24.3741C21.5248 24.3741 23.5108 24.935 25.2372 25.9946C26.9635 27.0542 28.3627 28.5712 29.2797 30.3774" stroke="black" stroke-width="2" stroke-linecap="round" stroke-linejoin="round"/>
</g>
</svg>
