<svg width="81" height="81" viewBox="0 0 81 81" fill="none" xmlns="http://www.w3.org/2000/svg">
<path d="M40.5 70.875C57.2757 70.875 70.875 57.2757 70.875 40.5C70.875 23.7244 57.2757 10.125 40.5 10.125C23.7244 10.125 10.125 23.7244 10.125 40.5C10.125 57.2757 23.7244 70.875 40.5 70.875Z" stroke="#0C385F" stroke-linecap="round" stroke-linejoin="round"/>
<path d="M40.5 50.625C47.4899 50.625 53.1562 44.9586 53.1562 37.9688C53.1562 30.9789 47.4899 25.3125 40.5 25.3125C33.5101 25.3125 27.8438 30.9789 27.8438 37.9688C27.8438 44.9586 33.5101 50.625 40.5 50.625Z" stroke="#0C385F" stroke-linecap="round" stroke-linejoin="round"/>
<path d="M20.1865 63.0914C22.091 59.3402 24.997 56.1895 28.5825 53.9888C32.168 51.788 36.2928 50.6231 40.4998 50.6231C44.7068 50.6231 48.8317 51.788 52.4171 53.9888C56.0026 56.1895 58.9086 59.3402 60.8131 63.0914" stroke="#0C385F" stroke-linecap="round" stroke-linejoin="round"/>
</svg>
