<svg width="37" height="38" viewBox="0 0 37 38" fill="none" xmlns="http://www.w3.org/2000/svg">
<g id="Phosphor Icons / YoutubeLogo">
<path id="Vector" d="M23.125 19L16.1875 14.25V23.75L23.125 19Z" stroke="white" stroke-width="2" stroke-linecap="round" stroke-linejoin="round"/>
<path id="Vector_2" d="M3.46875 19C3.46875 23.4235 3.9168 26.0063 4.24922 27.3422C4.34088 27.7047 4.51421 28.04 4.75522 28.321C4.99623 28.6021 5.29818 28.821 5.63672 28.9602C10.4785 30.8602 18.5 30.8157 18.5 30.8157C18.5 30.8157 26.5215 30.8602 31.3633 28.9602C31.7018 28.821 32.0038 28.6021 32.2448 28.321C32.4858 28.04 32.6591 27.7047 32.7508 27.3422C33.0832 26.0063 33.5312 23.4235 33.5312 19C33.5312 14.5766 33.0832 11.9938 32.7508 10.6579C32.6591 10.2954 32.4858 9.96009 32.2448 9.67904C32.0038 9.398 31.7018 9.17906 31.3633 9.03988C26.5215 7.13988 18.5 7.18442 18.5 7.18442C18.5 7.18442 10.4785 7.13988 5.63672 9.03988C5.29818 9.17906 4.99623 9.398 4.75522 9.67904C4.51421 9.96009 4.34088 10.2954 4.24922 10.6579C3.9168 11.9938 3.46875 14.5766 3.46875 19Z" stroke="white" stroke-width="2" stroke-linecap="round" stroke-linejoin="round"/>
</g>
</svg>
